<?xml version="1.0" encoding="UTF-8" standalone="no"?>
<!-- Created with Inkscape (http://www.inkscape.org/) -->

<svg
   xmlns:dc="http://purl.org/dc/elements/1.1/"
   xmlns:cc="http://creativecommons.org/ns#"
   xmlns:rdf="http://www.w3.org/1999/02/22-rdf-syntax-ns#"
   xmlns:svg="http://www.w3.org/2000/svg"
   xmlns="http://www.w3.org/2000/svg"
   xmlns:sodipodi="http://sodipodi.sourceforge.net/DTD/sodipodi-0.dtd"
   xmlns:inkscape="http://www.inkscape.org/namespaces/inkscape"
   width="239.90376mm"
   height="70.55555mm"
   viewBox="0 0 850.05271 249.99997"
   id="svg2"
   version="1.1"
   inkscape:version="0.91 r13725"
   sodipodi:docname="Fleeca-Logo.svg">
  <defs
     id="defs4" />
  <sodipodi:namedview
     id="base"
     pagecolor="#ffffff"
     bordercolor="#666666"
     borderopacity="1.0"
     inkscape:pageopacity="0.0"
     inkscape:pageshadow="2"
     inkscape:zoom="0.7"
     inkscape:cx="114.33666"
     inkscape:cy="323.20424"
     inkscape:document-units="px"
     inkscape:current-layer="layer1"
     showgrid="false"
     fit-margin-top="0"
     fit-margin-left="0"
     fit-margin-right="0"
     fit-margin-bottom="0"
     inkscape:window-width="1600"
     inkscape:window-height="837"
     inkscape:window-x="-8"
     inkscape:window-y="-8"
     inkscape:window-maximized="1" />
  <metadata
     id="metadata7">
    <rdf:RDF>
      <cc:Work
         rdf:about="">
        <dc:format>image/svg+xml</dc:format>
        <dc:type
           rdf:resource="http://purl.org/dc/dcmitype/StillImage" />
        <dc:title></dc:title>
      </cc:Work>
    </rdf:RDF>
  </metadata>
  <g
     inkscape:label="Ebene 1"
     inkscape:groupmode="layer"
     id="layer1"
     transform="translate(1938.1853,-54.439939)">
    <path
       style="fill:#000000;fill-opacity:1"
       d="m -1327.2592,249.31478 c -5.1668,-5.65304 -12.6637,-19.94181 -16.1807,-30.83963 -2.87,-8.89311 -4.0009,-23.45024 -2.8272,-36.39124 1.713,-18.88683 4.5177,-26.91064 15.7686,-45.11132 10.3064,-16.67273 18.5687,-25.88139 31.5023,-35.11062 10.8445,-7.738462 31.7804,-14.528845 51.378,-16.663993 11.4148,-1.243646 31.5194,-0.571829 39.3503,1.314938 6.7517,1.626751 21.2184,7.007353 21.2184,7.891787 0,1.302214 -10.0766,31.786548 -10.7405,32.492828 -13.1341,-3.20573 -25.3956,-5.82637 -36.9094,-5.38986 -20.7421,0.89073 -30.943,4.91471 -44.0301,17.36877 -13.2746,13.31682 -22.4158,33.01464 -21.1926,50.12792 1.5113,19.49267 7.0034,29.65074 22.4123,41.45303 8.1595,7.15847 29.698,10.71161 38.0418,6.96207 l 76.1876,-152.153428 51.5375,0 23.6103,191.089888 -42.6231,0.21105 -4.1376,-48.01419 -53.7124,-1.20613 -20.6025,49.00883 -32.7588,0.10102 c -36.0967,1.30934 -59.9529,-0.70049 -85.2922,-27.14172 z m 181.6326,-120.88501 -28.7417,64.7456 36.7985,0 z"
       id="path4428"
       inkscape:connector-curvature="0"
       sodipodi:nodetypes="csssssssccccccccccccccccccc" />
    <path
       style="fill:#27903a;fill-opacity:1"
       d="m -1646.6872,54.439939 316.9533,1.573678 -8.0843,43.373076 -96.2467,0.46509 -9.491,52.605797 92.4642,0 -8.4346,45.41184 -92.5197,2.03144 -10.439,58.57642 96.8987,-0.15649 -8.2071,46.1091 -149.8402,-1.02994 37.7682,-203.19473 -117.801,0.0136 -8.9924,51.33326 100.7154,2.16913 -8.2208,44.59781 -101.1056,0 -10.6074,59.79976 100.655,1.79849 -8.2028,44.06297 -154.2026,0.45968 z"
       id="path4426"
       inkscape:connector-curvature="0"
       sodipodi:nodetypes="ccccccccccccccccccccccc" />
    <path
       style="fill:#000000;fill-opacity:1"
       d="m -1938.1853,272.92954 c 0,-0.76519 39.2446,-177.557775 41.0649,-184.992746 l 0.4953,-2.0233 83.6297,0 83.6298,0 -33.467,150.359446 68.3425,0.71361 -6.7443,36.4194 -114.6537,-0.27486 33.467,-150.34858 -38.7043,0 c -36.0727,0 -38.7382,0.107 -39.2012,1.57368 l -9.244,40.69081 65.5677,0 -7.0434,35.29534 -66.7621,1.57368 -15.8643,71.48993 z"
       id="path4408"
       inkscape:connector-curvature="0"
       sodipodi:nodetypes="ccccccccccsccccccc" />
  </g>
</svg>
